<?xml version="1.0" encoding="utf-8"?>
<!-- Generator: Adobe Illustrator 23.0.1, SVG Export Plug-In . SVG Version: 6.00 Build 0)  -->
<svg version="1.1" id="contents" xmlns="http://www.w3.org/2000/svg" xmlns:xlink="http://www.w3.org/1999/xlink" x="0px" y="0px"
	 viewBox="0 0 674.1 570" style="enable-background:new 0 0 674.1 570;" xml:space="preserve">
<title>アートボード 2</title>
<path d="M353.7,355.4v-8.9h-16.6V283h16.6v-56.3H377c-14.3,25.9-4.9,58.5,21,72.7c25.9,14.3,58.5,4.9,72.7-21
	c14.3-25.9,4.9-58.5-21-72.7c-7.9-4.4-16.8-6.7-25.9-6.7h-86.8v-52.2l104.8,48.9l24.9-53.4l-95.3-44.4h-0.1l95.4-44.5L441.8,0
	L337.1,48.9v-22h-70.8v22L161.5,0l-24.9,53.4L232,97.8h-0.1l-95.3,44.4l24.9,53.4l104.8-48.9V199h-86.8c-29.5,0-53.5,24-53.5,53.5
	c0,29.5,24,53.5,53.5,53.5c29.5,0,53.5-24,53.5-53.5c0-9-2.3-17.9-6.6-25.8h23.4V283h16.6v63.6h-16.6v75.9h16.6V570h70.8V422.4h16.6
	v-10.1h320.4v-56.9H353.7z M445.5,252.6c0,11.9-9.6,21.6-21.5,21.6c-11.9,0-21.6-9.6-21.6-21.5c0-11.9,9.6-21.6,21.5-21.6
	c0,0,0,0,0.1,0C435.8,231,445.5,240.6,445.5,252.6L445.5,252.6z M419.5,134.3l30.4,14.1l-14.1,30.4l-30.4-14.1L419.5,134.3z
	 M435.7,16.9l14.1,30.4l-30.4,14.2L405.4,31L435.7,16.9z M337.1,62.9l14.8-6.9l0,0L366,86.3l0,0l-28.9,13.5L337.1,62.9z
	 M337.1,113.9l19.2-9l9.6,4.5l-14.1,30.4l-14.7-6.8V113.9z M183.8,61.4l-30.4-14.2l14.1-30.4L198,31L183.8,61.4z M167.6,178.8
	l-14.1-30.4l30.4-14.1l14.2,30.4L167.6,178.8z M179.4,274.1c-11.9,0-21.6-9.7-21.6-21.6c0-11.9,9.7-21.6,21.6-21.6
	s21.6,9.7,21.6,21.6c0,0,0,0,0,0C201,264.5,191.3,274.1,179.4,274.1z M266.3,132.8l-14.7,6.8l-14.1-30.4l28.8-13.4V132.8z
	 M266.3,81.8l-19.2,9l-9.7-4.5l0,0L251.5,56l0,0l14.8,6.9L266.3,81.8z M318.8,551.7h-34.3V422.4h34.3V551.7z M318.8,346.5h-34.3V283
	h34.3V346.5z M318.8,199h-34.3v-60.7l17.2-8l17.2,8V199z M318.8,57.3l-17.2,8l-17.2-8V45.1h34.3V57.3z M382.2,394h-28.5v-20.3h28.5
	L382.2,394z M473.4,394H438v-20.3h35.4L473.4,394z M564.7,394h-35.4v-20.3h35.3L564.7,394z M655.9,394h-35.3v-20.3h35.3L655.9,394z"
	/>
</svg>
